<?xml version="1.0" encoding="UTF-8" standalone="no"?>
<!-- Generator: Adobe Illustrator 16.0.0, SVG Export Plug-In . SVG Version: 6.00 Build 0)  -->

<svg
   xmlns:dc="http://purl.org/dc/elements/1.1/"
   xmlns:cc="http://creativecommons.org/ns#"
   xmlns:rdf="http://www.w3.org/1999/02/22-rdf-syntax-ns#"
   xmlns:svg="http://www.w3.org/2000/svg"
   xmlns="http://www.w3.org/2000/svg"
   xmlns:sodipodi="http://sodipodi.sourceforge.net/DTD/sodipodi-0.dtd"
   xmlns:inkscape="http://www.inkscape.org/namespaces/inkscape"
   version="1.1"
   id="Capa_1"
   x="0px"
   y="0px"
   width="508.04401"
   height="441.04401"
   viewBox="0 0 508.044 441.044"
   xml:space="preserve"
   sodipodi:docname="right-quotes.svg"
   inkscape:version="0.92.4 (5da689c313, 2019-01-14)"><metadata
   id="metadata98"><rdf:RDF><cc:Work
       rdf:about=""><dc:format>image/svg+xml</dc:format><dc:type
         rdf:resource="http://purl.org/dc/dcmitype/StillImage" /><dc:title></dc:title></cc:Work></rdf:RDF></metadata><defs
   id="defs96" /><sodipodi:namedview
   pagecolor="#ffffff"
   bordercolor="#666666"
   borderopacity="1"
   objecttolerance="10"
   gridtolerance="10"
   guidetolerance="10"
   inkscape:pageopacity="0"
   inkscape:pageshadow="2"
   inkscape:window-width="1920"
   inkscape:window-height="1001"
   id="namedview94"
   showgrid="false"
   inkscape:zoom="1.5904134"
   inkscape:cx="254.022"
   inkscape:cy="228.87131"
   inkscape:window-x="-9"
   inkscape:window-y="-9"
   inkscape:window-maximized="1"
   inkscape:current-layer="Capa_1" />
<g
   id="g61"
   style="opacity:0.3"
   transform="rotate(180,254.02249,237.52255)">
	<g
   id="g59">
		<path
   d="m 0.108,352.536 c 0,66.794 54.144,120.938 120.937,120.938 66.794,0 120.938,-54.144 120.938,-120.938 0,-66.794 -54.144,-120.937 -120.938,-120.937 -13.727,0 -26.867,2.393 -39.168,6.61 C 109.093,82.118 230.814,-18.543 117.979,64.303 -7.138,156.17 -0.026,348.84 0.114,352.371 c 0,0.055 -0.006,0.104 -0.006,0.165 z"
   id="path55"
   inkscape:connector-curvature="0" />
		<path
   d="m 266.169,352.536 c 0,66.794 54.144,120.938 120.938,120.938 66.794,0 120.938,-54.144 120.938,-120.938 0,-66.794 -54.145,-120.937 -120.939,-120.937 -13.728,0 -26.867,2.393 -39.168,6.61 C 375.154,82.118 496.875,-18.543 384.04,64.303 258.923,156.17 266.034,348.84 266.175,352.371 c 0,0.055 -0.006,0.104 -0.006,0.165 z"
   id="path57"
   inkscape:connector-curvature="0" />
	</g>
</g>
<g
   id="g63"
   style="opacity:0.3"
   transform="rotate(180,1.738281e-7,457.54387)">
</g>
<g
   id="g65"
   style="opacity:0.3"
   transform="rotate(180,1.738281e-7,457.54387)">
</g>
<g
   id="g67"
   style="opacity:0.3"
   transform="rotate(180,1.738281e-7,457.54387)">
</g>
<g
   id="g69"
   style="opacity:0.3"
   transform="rotate(180,1.738281e-7,457.54387)">
</g>
<g
   id="g71"
   style="opacity:0.3"
   transform="rotate(180,1.738281e-7,457.54387)">
</g>
<g
   id="g73"
   style="opacity:0.3"
   transform="rotate(180,1.738281e-7,457.54387)">
</g>
<g
   id="g75"
   style="opacity:0.3"
   transform="rotate(180,1.738281e-7,457.54387)">
</g>
<g
   id="g77"
   style="opacity:0.3"
   transform="rotate(180,1.738281e-7,457.54387)">
</g>
<g
   id="g79"
   style="opacity:0.3"
   transform="rotate(180,1.738281e-7,457.54387)">
</g>
<g
   id="g81"
   style="opacity:0.3"
   transform="rotate(180,1.738281e-7,457.54387)">
</g>
<g
   id="g83"
   style="opacity:0.3"
   transform="rotate(180,1.738281e-7,457.54387)">
</g>
<g
   id="g85"
   style="opacity:0.3"
   transform="rotate(180,1.738281e-7,457.54387)">
</g>
<g
   id="g87"
   style="opacity:0.3"
   transform="rotate(180,1.738281e-7,457.54387)">
</g>
<g
   id="g89"
   style="opacity:0.3"
   transform="rotate(180,1.738281e-7,457.54387)">
</g>
<g
   id="g91"
   style="opacity:0.3"
   transform="rotate(180,1.738281e-7,457.54387)">
</g>
</svg>